<svg width="600" height="361" viewBox="0 0 600 361" fill="none" xmlns="http://www.w3.org/2000/svg">
<g clip-path="url(#clip0)">
<path d="M558.522 338.632L523.135 287.788L558.54 344.162L558.56 349.947C561.084 349.926 563.582 349.844 566.054 349.701C566.066 348.387 563.058 276.118 563.186 274.811C563.011 274.761 562.913 267.975 562.844 267.678L599.813 212.118L562.804 262.42L562.694 263.907L560.499 207.758L592.277 150.26L560.247 197.892C560.235 197.128 558.731 81.8424 558.716 81.1311C558.707 81.5089 558.017 172.876 558.012 173.261L527.62 136.485L558.041 181.164L558.196 231.416L529.993 182.821C565.191 253.689 557.401 228.89 558.3 266.747L517.333 199.082L558.335 276.495L558.522 338.632Z" fill="#D0CDE1"/>
<path d="M17.1646 345.535L2.41815 324.347L17.1721 347.839L17.1807 350.25C18.2323 350.241 19.2733 350.207 20.3037 350.147C20.3084 349.6 19.055 319.483 19.1083 318.939C19.0355 318.918 18.9947 316.09 18.9658 315.966L34.3716 292.813L18.9493 313.775L18.9033 314.395L17.9884 290.996L31.2313 267.035L17.8837 286.885C17.8787 286.567 17.2519 238.524 17.2458 238.228C17.242 238.385 16.9543 276.46 16.9522 276.62L4.28694 261.295L16.9643 279.914L17.0291 300.855L5.27581 280.604C19.9437 310.137 16.6976 299.802 17.0722 315.578L0 287.381L17.0869 319.641L17.1646 345.535Z" fill="#D0CDE1"/>
<path d="M300.981 360.887C135.837 360.887 1.96143 355.642 1.96143 349.171C1.96143 342.701 135.837 337.456 300.981 337.456C466.124 337.456 600 342.701 600 349.171C600 355.642 466.124 360.887 300.981 360.887Z" fill="#D0CDE1"/>
<path d="M155.934 138.369H497.352V341.92H155.934V138.369Z" fill="#555555"/>
<path d="M412.856 138.369C413.205 159.789 421.959 180.213 437.229 195.238C452.499 210.262 473.062 218.684 494.484 218.686C495.444 218.686 496.398 218.669 497.352 218.636V138.369H412.856Z" fill="#0779E4"/>
<path d="M309.942 341.92H342.414C341.192 338.597 338.98 335.729 336.077 333.703C333.173 331.677 329.718 330.591 326.178 330.591C322.637 330.591 319.182 331.677 316.279 333.703C313.375 335.729 311.164 338.597 309.942 341.92Z" fill="#0779E4"/>
<path d="M155.934 236.633V305.195C164.736 304.765 173.036 300.965 179.113 294.584C185.191 288.202 188.581 279.727 188.581 270.914C188.581 262.101 185.191 253.626 179.113 247.244C173.036 240.863 164.736 237.063 155.934 236.633Z" fill="#0779E4"/>
<path d="M218.655 212.334H434.038C439.594 212.334 444.098 216.838 444.098 222.393V222.393C444.098 227.949 439.594 232.453 434.038 232.453H218.655C213.1 232.453 208.596 227.949 208.596 222.393C208.596 216.838 213.1 212.334 218.655 212.334Z" fill="white"/>
<path d="M218.655 251.979H434.038C439.594 251.979 444.098 256.483 444.098 262.038V262.038C444.098 267.594 439.594 272.097 434.038 272.097H218.655C213.1 272.097 208.596 267.594 208.596 262.038C208.596 256.483 213.1 251.979 218.655 251.979Z" fill="white"/>
<path d="M218.655 291.624H281.105C286.66 291.624 291.164 296.127 291.164 301.683C291.164 307.238 286.66 311.742 281.105 311.742H218.655C213.1 311.742 208.596 307.238 208.596 301.683C208.596 296.127 213.1 291.624 218.655 291.624Z" fill="white"/>
<path d="M101.792 62.5484C101.792 62.5484 92.4033 66.1994 91.8817 78.1955C91.3601 90.1917 94.4896 123.572 94.4896 123.572C94.4896 123.572 83.015 140.262 91.8817 144.957C100.748 149.651 101.792 126.18 101.792 126.18L112.223 76.6308C112.223 76.6308 105.964 62.0268 101.792 62.5484Z" fill="#A0616A"/>
<path d="M197.761 101.145C197.761 101.145 220.188 115.749 221.231 104.274C222.275 92.7995 214.451 47.9444 214.451 47.9444C214.451 47.9444 213.408 28.6462 202.455 33.3404C191.502 38.0346 205.584 54.2033 205.584 54.2033L204.019 90.7132L193.588 90.1917L197.761 101.145Z" fill="#A0616A"/>
<path d="M161.772 114.706C161.772 114.706 230.62 89.1485 226.969 118.878C223.318 148.608 205.584 186.161 205.584 186.161L199.325 196.071H186.286L194.631 142.349C194.631 142.349 164.902 159.039 156.035 156.431C156.035 156.431 144.56 233.102 140.388 238.839C136.215 244.577 128.913 313.946 128.913 313.946L122.133 322.291H109.094V204.937C109.094 204.937 86.666 131.917 103.878 128.266C121.09 124.615 161.772 114.706 161.772 114.706Z" fill="#2F2E41"/>
<path d="M200.89 189.29C200.89 189.29 204.02 183.553 209.235 189.29C214.451 195.027 226.969 201.808 226.969 201.808C226.969 201.808 254.09 208.067 232.184 213.282C210.278 218.498 207.671 213.282 207.671 213.282C207.671 213.282 204.02 214.326 200.89 215.369C197.761 216.412 177.419 212.761 177.419 209.631C177.419 206.502 184.325 187.8 187.131 190.631C189.937 193.463 200.89 189.29 200.89 189.29Z" fill="#2F2E41"/>
<path d="M121.133 317.128C121.133 317.128 128.824 310.795 130.633 312.604C132.443 314.414 141.943 326.628 141.943 326.628C141.943 326.628 167.275 346.08 144.204 349.246C121.133 352.413 122.491 343.818 122.491 343.818H115.253C114.348 343.818 102.134 338.39 102.586 336.128C103.039 333.866 108.467 315.422 110.277 316.727C112.086 318.033 121.133 317.128 121.133 317.128Z" fill="#2F2E41"/>
<path d="M190.98 42.7287C181.186 42.7287 173.247 34.7892 173.247 24.9953C173.247 15.2014 181.186 7.26184 190.98 7.26184C200.774 7.26184 208.714 15.2014 208.714 24.9953C208.714 34.7892 200.774 42.7287 190.98 42.7287Z" fill="#A0616A"/>
<path d="M178.463 22.909C178.463 22.909 164.902 34.3835 155.513 34.3835C146.125 34.3835 169.074 55.768 169.074 55.768L189.416 37.513L178.463 22.909Z" fill="#A0616A"/>
<path d="M173.247 55.768L173.653 51.6589C173.653 51.6589 163.337 33.3404 160.208 31.7757C157.078 30.211 154.992 30.211 154.992 30.211C154.992 30.211 144.56 19.258 133.086 24.9953C121.611 30.7325 94.4895 67.2425 94.4895 67.2425C94.4895 67.2425 113.788 68.8073 111.18 83.9328C111.18 83.9328 91.8817 133.482 97.0974 134.004C102.313 134.525 117.96 130.874 134.129 138.176C150.298 145.478 157.6 140.784 157.6 140.784L165.945 113.662C165.945 113.662 181.592 104.796 181.07 96.9721L203.759 107.143L201.672 87.8446L187.851 71.9367C187.851 71.9367 190.459 69.8504 173.247 55.768Z" fill="#0779E4"/>
<path d="M207.293 26.9125C207.997 27.6957 208.881 28.2974 209.868 28.6662C210.878 28.9511 212.15 28.6018 212.553 27.6326L211.803 26.6567L214.051 25.2598L213.071 24.1105L214.882 22.1444L213.453 21.0106L216.174 19.0647C212.647 13.3105 208.834 7.48416 203.266 3.66965C197.699 -0.144868 189.919 -1.5003 184.216 2.10772C181.255 3.98095 179.161 6.95408 177.484 10.0305C174.111 16.2174 171.137 22.2482 170.698 29.2813C172.817 27.2179 175.91 26.0551 178.029 23.9917C178.968 22.9961 180.031 22.1259 181.192 21.4028C183.408 20.153 186.06 20.0425 188.541 19.4787C190.627 19.0047 191.981 18.0643 193.559 16.72C195.437 15.1208 195.513 15.7392 197.409 17.5397C200.702 20.6661 203.996 23.7904 207.293 26.9125Z" fill="#2F2E41"/>
</g>
<defs>
<clipPath id="clip0">
<rect width="600" height="360.887" fill="white" transform="matrix(-1 0 0 1 600 0)"/>
</clipPath>
</defs>
</svg>
